<?xml version="1.0" encoding="UTF-8"?>
<svg xmlns="http://www.w3.org/2000/svg" xmlns:xlink="http://www.w3.org/1999/xlink" width="px" height="px" viewBox="0 0 15 15" version="1.1">
<g id="surface1">
<path style=" stroke:none;fill-rule:nonzero;fill:rgb(17.647059%,18.823529%,22.352941%);fill-opacity:1;" d="M 1.015625 7.867188 L 0.5625 7.867188 C 0.25 7.867188 0 7.617188 0 7.308594 L 0 5.886719 C 0 5.578125 0.25 5.328125 0.5625 5.328125 L 1.015625 5.328125 Z M 1.015625 7.867188 "/>
<path style=" stroke:none;fill-rule:nonzero;fill:rgb(90.588235%,29.803922%,23.921569%);fill-opacity:1;" d="M 5.097656 8.925781 L 1.691406 8.71875 C 1.316406 8.691406 1.03125 8.382812 1.03125 8.007812 L 1.03125 5.175781 C 1.03125 4.851562 1.28125 4.585938 1.601562 4.5625 L 5.097656 4.347656 Z M 5.097656 8.925781 "/>
<path style=" stroke:none;fill-rule:nonzero;fill:rgb(92.54902%,94.117647%,94.509804%);fill-opacity:1;" d="M 10.675781 12.222656 L 5.683594 9.726562 C 5.324219 9.546875 5.097656 9.179688 5.097656 8.773438 L 5.097656 4.476562 C 5.097656 4.085938 5.3125 3.722656 5.660156 3.539062 L 10.652344 0.863281 C 11.359375 0.484375 12.214844 1 12.214844 1.800781 L 12.214844 11.269531 C 12.214844 12.0625 11.382812 12.574219 10.675781 12.222656 "/>
<path style=" stroke:none;fill-rule:nonzero;fill:rgb(90.588235%,29.803922%,23.921569%);fill-opacity:1;" d="M 12.457031 5.328125 L 12.203125 5.328125 L 12.203125 7.867188 L 12.457031 7.867188 C 13.015625 7.867188 13.472656 7.410156 13.472656 6.851562 L 13.472656 6.34375 C 13.472656 5.785156 13.015625 5.328125 12.457031 5.328125 "/>
<path style=" stroke:none;fill-rule:nonzero;fill:rgb(81.960784%,83.137255%,82.352941%);fill-opacity:1;" d="M 14.234375 8.378906 C 14.183594 8.378906 14.132812 8.363281 14.089844 8.328125 C 13.972656 8.246094 13.949219 8.089844 14.03125 7.976562 C 14.175781 7.773438 14.507812 7.238281 14.492188 6.605469 C 14.476562 6.101562 14.324219 5.636719 14.027344 5.21875 C 13.949219 5.105469 13.976562 4.945312 14.089844 4.863281 C 14.203125 4.785156 14.363281 4.8125 14.445312 4.925781 C 14.796875 5.425781 14.984375 5.988281 15 6.589844 C 15.019531 7.378906 14.617188 8.027344 14.445312 8.269531 C 14.394531 8.339844 14.316406 8.378906 14.234375 8.378906 "/>
<path style=" stroke:none;fill-rule:nonzero;fill:rgb(75.294118%,23.137255%,16.862745%);fill-opacity:1;" d="M 2.046875 8.738281 L 2.046875 9.648438 L 2.808594 9.648438 C 2.949219 9.648438 3.0625 9.761719 3.0625 9.902344 C 3.0625 10.042969 2.949219 10.15625 2.808594 10.15625 L 2.046875 10.15625 L 2.046875 10.664062 L 2.808594 10.664062 C 2.949219 10.664062 3.0625 10.777344 3.0625 10.917969 C 3.0625 11.058594 2.949219 11.175781 2.808594 11.175781 L 2.046875 11.175781 L 2.046875 11.683594 L 2.808594 11.683594 C 2.949219 11.683594 3.0625 11.796875 3.0625 11.9375 C 3.0625 12.078125 2.949219 12.191406 2.808594 12.191406 L 2.046875 12.191406 L 2.046875 12.699219 L 2.808594 12.699219 C 2.949219 12.699219 3.0625 12.8125 3.0625 12.953125 C 3.0625 13.09375 2.949219 13.207031 2.808594 13.207031 L 2.046875 13.207031 L 2.046875 13.371094 C 2.046875 13.863281 2.449219 14.261719 2.9375 14.261719 C 3.425781 14.261719 3.828125 13.863281 3.828125 13.371094 L 3.828125 8.851562 Z M 2.046875 8.738281 "/>
<path style=" stroke:none;fill-rule:nonzero;fill:rgb(90.588235%,29.803922%,23.921569%);fill-opacity:1;" d="M 3.0625 12.953125 C 3.0625 12.8125 2.949219 12.699219 2.808594 12.699219 L 2.046875 12.699219 L 2.046875 13.207031 L 2.808594 13.207031 C 2.949219 13.207031 3.0625 13.09375 3.0625 12.953125 "/>
<path style=" stroke:none;fill-rule:nonzero;fill:rgb(90.588235%,29.803922%,23.921569%);fill-opacity:1;" d="M 3.0625 11.9375 C 3.0625 11.796875 2.949219 11.683594 2.808594 11.683594 L 2.046875 11.683594 L 2.046875 12.191406 L 2.808594 12.191406 C 2.949219 12.191406 3.0625 12.078125 3.0625 11.9375 "/>
<path style=" stroke:none;fill-rule:nonzero;fill:rgb(90.588235%,29.803922%,23.921569%);fill-opacity:1;" d="M 3.0625 10.917969 C 3.0625 10.777344 2.949219 10.664062 2.808594 10.664062 L 2.046875 10.664062 L 2.046875 11.171875 L 2.808594 11.171875 C 2.949219 11.171875 3.0625 11.058594 3.0625 10.917969 "/>
<path style=" stroke:none;fill-rule:nonzero;fill:rgb(90.588235%,29.803922%,23.921569%);fill-opacity:1;" d="M 3.0625 9.902344 C 3.0625 9.761719 2.949219 9.648438 2.808594 9.648438 L 2.046875 9.648438 L 2.046875 10.15625 L 2.808594 10.15625 C 2.949219 10.15625 3.0625 10.042969 3.0625 9.902344 "/>
<path style=" stroke:none;fill-rule:nonzero;fill:rgb(33.333333%,38.039216%,50.196078%);fill-opacity:1;" d="M 10.636719 0.863281 L 10.167969 1.117188 L 10.167969 11.976562 L 10.664062 12.222656 C 11.371094 12.574219 12.203125 12.0625 12.203125 11.269531 L 12.203125 1.800781 C 12.203125 1 11.34375 0.484375 10.636719 0.863281 "/>
<path style=" stroke:none;fill-rule:nonzero;fill:rgb(100%,100%,100%);fill-opacity:1;" d="M 7.855469 3.6875 C 7.792969 3.5625 7.640625 3.511719 7.515625 3.574219 L 6.382812 4.132812 C 6.050781 4.308594 5.847656 4.652344 5.847656 5.027344 L 5.847656 5.582031 C 5.847656 5.722656 5.960938 5.835938 6.101562 5.835938 C 6.242188 5.835938 6.355469 5.722656 6.355469 5.582031 L 6.355469 5.027344 C 6.355469 4.839844 6.457031 4.667969 6.613281 4.585938 L 7.738281 4.027344 C 7.863281 3.96875 7.917969 3.8125 7.855469 3.6875 "/>
<path style=" stroke:none;fill-rule:nonzero;fill:rgb(100%,100%,100%);fill-opacity:1;" d="M 6.101562 6.089844 C 5.960938 6.089844 5.847656 6.203125 5.847656 6.34375 L 5.847656 6.851562 C 5.847656 6.992188 5.960938 7.105469 6.101562 7.105469 C 6.242188 7.105469 6.355469 6.992188 6.355469 6.851562 L 6.355469 6.34375 C 6.355469 6.203125 6.242188 6.089844 6.101562 6.089844 "/>
</g>
</svg>
