<?xml version="1.0" encoding="UTF-8"?>
<svg xmlns="http://www.w3.org/2000/svg" xmlns:xlink="http://www.w3.org/1999/xlink" width="px" height="px" viewBox="0 0 15 15" version="1.1">
<g id="surface1">
<path style=" stroke:none;fill-rule:nonzero;fill:rgb(80%,70.196078%,45.882353%);fill-opacity:1;" d="M 14.167969 12.929688 L 0.832031 12.929688 C 0.371094 12.929688 0 12.558594 0 12.097656 L 0 2.902344 C 0 2.441406 0.371094 2.070312 0.832031 2.070312 L 14.167969 2.070312 C 14.628906 2.070312 15 2.441406 15 2.902344 L 15 12.097656 C 15 12.558594 14.628906 12.929688 14.167969 12.929688 "/>
<path style=" stroke:none;fill-rule:nonzero;fill:rgb(47.843137%,41.176471%,23.529412%);fill-opacity:1;" d="M 3.878906 9.308594 L 1.550781 9.308594 C 1.410156 9.308594 1.292969 9.425781 1.292969 9.570312 C 1.292969 9.710938 1.410156 9.828125 1.550781 9.828125 L 3.878906 9.828125 C 4.023438 9.828125 4.136719 9.710938 4.136719 9.570312 C 4.136719 9.425781 4.023438 9.308594 3.878906 9.308594 "/>
<path style=" stroke:none;fill-rule:nonzero;fill:rgb(47.843137%,41.176471%,23.529412%);fill-opacity:1;" d="M 7.5 9.570312 C 7.5 9.425781 7.382812 9.308594 7.242188 9.308594 L 4.914062 9.308594 C 4.769531 9.308594 4.65625 9.425781 4.65625 9.570312 C 4.65625 9.710938 4.769531 9.828125 4.914062 9.828125 L 7.242188 9.828125 C 7.382812 9.828125 7.5 9.710938 7.5 9.570312 "/>
<path style=" stroke:none;fill-rule:nonzero;fill:rgb(47.843137%,41.176471%,23.529412%);fill-opacity:1;" d="M 1.808594 10.601562 L 1.550781 10.601562 C 1.410156 10.601562 1.292969 10.71875 1.292969 10.863281 C 1.292969 11.003906 1.410156 11.121094 1.550781 11.121094 L 1.808594 11.121094 C 1.953125 11.121094 2.070312 11.003906 2.070312 10.863281 C 2.070312 10.71875 1.953125 10.601562 1.808594 10.601562 "/>
<path style=" stroke:none;fill-rule:nonzero;fill:rgb(47.843137%,41.176471%,23.529412%);fill-opacity:1;" d="M 3.363281 10.601562 L 2.84375 10.601562 C 2.703125 10.601562 2.585938 10.71875 2.585938 10.863281 C 2.585938 11.003906 2.703125 11.121094 2.84375 11.121094 L 3.363281 11.121094 C 3.503906 11.121094 3.621094 11.003906 3.621094 10.863281 C 3.621094 10.71875 3.503906 10.601562 3.363281 10.601562 "/>
<path style=" stroke:none;fill-rule:nonzero;fill:rgb(47.843137%,41.176471%,23.529412%);fill-opacity:1;" d="M 4.65625 10.601562 L 4.398438 10.601562 C 4.253906 10.601562 4.136719 10.71875 4.136719 10.863281 C 4.136719 11.003906 4.253906 11.121094 4.398438 11.121094 L 4.65625 11.121094 C 4.796875 11.121094 4.914062 11.003906 4.914062 10.863281 C 4.914062 10.71875 4.796875 10.601562 4.65625 10.601562 "/>
<path style=" stroke:none;fill-rule:nonzero;fill:rgb(47.843137%,41.176471%,23.529412%);fill-opacity:1;" d="M 6.207031 10.601562 L 5.691406 10.601562 C 5.546875 10.601562 5.429688 10.71875 5.429688 10.863281 C 5.429688 11.003906 5.546875 11.121094 5.691406 11.121094 L 6.207031 11.121094 C 6.351562 11.121094 6.464844 11.003906 6.464844 10.863281 C 6.464844 10.71875 6.351562 10.601562 6.207031 10.601562 "/>
<path style=" stroke:none;fill-rule:nonzero;fill:rgb(47.843137%,41.176471%,23.529412%);fill-opacity:1;" d="M 7.058594 10.679688 C 7.011719 10.726562 6.984375 10.792969 6.984375 10.863281 C 6.984375 10.929688 7.011719 10.996094 7.058594 11.046875 C 7.105469 11.09375 7.175781 11.121094 7.242188 11.121094 C 7.308594 11.121094 7.375 11.09375 7.425781 11.046875 C 7.472656 10.996094 7.5 10.929688 7.5 10.863281 C 7.5 10.792969 7.472656 10.726562 7.425781 10.679688 C 7.328125 10.582031 7.148438 10.582031 7.058594 10.679688 "/>
<path style=" stroke:none;fill-rule:nonzero;fill:rgb(90.588235%,29.803922%,23.921569%);fill-opacity:1;" d="M 11.898438 10.085938 C 11.898438 10.941406 11.203125 11.636719 10.34375 11.636719 C 9.488281 11.636719 8.792969 10.941406 8.792969 10.085938 C 8.792969 9.230469 9.488281 8.535156 10.34375 8.535156 C 11.203125 8.535156 11.898438 9.230469 11.898438 10.085938 "/>
<path style=" stroke:none;fill-rule:nonzero;fill:rgb(94.117647%,76.862745%,10.588235%);fill-opacity:1;" d="M 13.707031 10.085938 C 13.707031 10.941406 13.011719 11.636719 12.15625 11.636719 C 11.296875 11.636719 10.601562 10.941406 10.601562 10.085938 C 10.601562 9.230469 11.296875 8.535156 12.15625 8.535156 C 13.011719 8.535156 13.707031 9.230469 13.707031 10.085938 "/>
<path style=" stroke:none;fill-rule:nonzero;fill:rgb(94.117647%,76.862745%,10.588235%);fill-opacity:1;" d="M 5.363281 7.242188 L 1.875 7.242188 C 1.699219 7.242188 1.550781 7.097656 1.550781 6.917969 L 1.550781 4.460938 C 1.550781 4.285156 1.699219 4.136719 1.875 4.136719 L 5.363281 4.136719 C 5.542969 4.136719 5.691406 4.285156 5.691406 4.460938 L 5.691406 6.917969 C 5.691406 7.097656 5.542969 7.242188 5.363281 7.242188 "/>
<path style=" stroke:none;fill-rule:nonzero;fill:rgb(95.294118%,83.529412%,36.078431%);fill-opacity:1;" d="M 5.363281 7.5 L 1.875 7.5 C 1.554688 7.5 1.292969 7.238281 1.292969 6.917969 L 1.292969 4.460938 C 1.292969 4.140625 1.554688 3.878906 1.875 3.878906 L 5.363281 3.878906 C 5.6875 3.878906 5.949219 4.140625 5.949219 4.460938 L 5.949219 6.917969 C 5.949219 7.238281 5.6875 7.5 5.363281 7.5 M 1.875 4.398438 C 1.839844 4.398438 1.808594 4.425781 1.808594 4.460938 L 1.808594 6.917969 C 1.808594 6.953125 1.839844 6.984375 1.875 6.984375 L 5.363281 6.984375 C 5.402344 6.984375 5.429688 6.953125 5.429688 6.917969 L 5.429688 4.460938 C 5.429688 4.425781 5.402344 4.398438 5.363281 4.398438 Z M 1.875 4.398438 "/>
<path style=" stroke:none;fill-rule:nonzero;fill:rgb(94.117647%,76.862745%,10.588235%);fill-opacity:1;" d="M 5.691406 4.460938 C 5.691406 4.285156 5.542969 4.136719 5.363281 4.136719 L 3.429688 4.136719 C 3.25 4.136719 3.101562 4.285156 3.101562 4.460938 L 3.101562 6.917969 C 3.101562 7.097656 3.25 7.242188 3.429688 7.242188 L 3.8125 7.242188 C 3.992188 7.242188 4.136719 7.097656 4.136719 6.917969 L 4.136719 5.496094 C 4.136719 5.316406 4.285156 5.171875 4.460938 5.171875 L 5.363281 5.171875 C 5.542969 5.171875 5.691406 5.027344 5.691406 4.847656 Z M 5.691406 4.460938 "/>
<path style=" stroke:none;fill-rule:nonzero;fill:rgb(95.294118%,83.529412%,36.078431%);fill-opacity:1;" d="M 3.8125 7.5 L 3.429688 7.5 C 3.105469 7.5 2.84375 7.238281 2.84375 6.917969 L 2.84375 4.460938 C 2.84375 4.140625 3.105469 3.878906 3.429688 3.878906 L 5.363281 3.878906 C 5.6875 3.878906 5.949219 4.140625 5.949219 4.460938 L 5.949219 4.847656 C 5.949219 5.167969 5.6875 5.429688 5.363281 5.429688 L 4.460938 5.429688 C 4.425781 5.429688 4.398438 5.460938 4.398438 5.496094 L 4.398438 6.917969 C 4.398438 7.238281 4.136719 7.5 3.8125 7.5 M 3.429688 4.398438 C 3.390625 4.398438 3.363281 4.425781 3.363281 4.460938 L 3.363281 6.917969 C 3.363281 6.953125 3.390625 6.984375 3.429688 6.984375 L 3.8125 6.984375 C 3.851562 6.984375 3.878906 6.953125 3.878906 6.917969 L 3.878906 5.496094 C 3.878906 5.175781 4.140625 4.914062 4.460938 4.914062 L 5.363281 4.914062 C 5.402344 4.914062 5.429688 4.882812 5.429688 4.847656 L 5.429688 4.460938 C 5.429688 4.425781 5.402344 4.398438 5.363281 4.398438 Z M 3.429688 4.398438 "/>
<path style=" stroke:none;fill-rule:nonzero;fill:rgb(95.294118%,83.529412%,36.078431%);fill-opacity:1;" d="M 5.691406 6.464844 L 4.136719 6.464844 C 3.996094 6.464844 3.878906 6.351562 3.878906 6.207031 C 3.878906 6.0625 3.996094 5.949219 4.136719 5.949219 L 5.691406 5.949219 C 5.832031 5.949219 5.949219 6.0625 5.949219 6.207031 C 5.949219 6.351562 5.832031 6.464844 5.691406 6.464844 "/>
<path style=" stroke:none;fill-rule:nonzero;fill:rgb(95.294118%,83.529412%,36.078431%);fill-opacity:1;" d="M 3.101562 5.429688 L 1.550781 5.429688 C 1.410156 5.429688 1.292969 5.316406 1.292969 5.171875 C 1.292969 5.03125 1.410156 4.914062 1.550781 4.914062 L 3.101562 4.914062 C 3.246094 4.914062 3.363281 5.03125 3.363281 5.171875 C 3.363281 5.316406 3.246094 5.429688 3.101562 5.429688 "/>
<path style=" stroke:none;fill-rule:nonzero;fill:rgb(95.294118%,83.529412%,36.078431%);fill-opacity:1;" d="M 3.101562 6.464844 L 1.550781 6.464844 C 1.410156 6.464844 1.292969 6.351562 1.292969 6.207031 C 1.292969 6.0625 1.410156 5.949219 1.550781 5.949219 L 3.101562 5.949219 C 3.246094 5.949219 3.363281 6.0625 3.363281 6.207031 C 3.363281 6.351562 3.246094 6.464844 3.101562 6.464844 "/>
</g>
</svg>
