<?xml version="1.0" encoding="UTF-8"?>
<svg xmlns="http://www.w3.org/2000/svg" xmlns:xlink="http://www.w3.org/1999/xlink" width="px" height="px" viewBox="0 0 14 14" version="1.1">
<g id="surface1">
<path style=" stroke:none;fill-rule:nonzero;fill:rgb(91.372549%,90.980392%,82.745098%);fill-opacity:1;" d="M 5.273438 7.875 C 4.359375 7.300781 3.75 6.285156 3.75 5.125 C 3.75 3.964844 4.359375 2.949219 5.273438 2.375 L 2.742188 2.375 C 2.746094 2.417969 2.75 2.457031 2.75 2.5 C 2.75 3.257812 2.132812 3.875 1.375 3.875 C 1.332031 3.875 1.292969 3.871094 1.25 3.867188 L 1.25 6.382812 C 1.292969 6.378906 1.332031 6.375 1.375 6.375 C 2.132812 6.375 2.75 6.992188 2.75 7.75 C 2.75 7.792969 2.746094 7.832031 2.742188 7.875 Z M 5.273438 7.875 "/>
<path style=" stroke:none;fill-rule:nonzero;fill:rgb(91.372549%,90.980392%,82.745098%);fill-opacity:1;" d="M 12.625 3.875 C 11.867188 3.875 11.25 3.257812 11.25 2.5 C 11.25 2.457031 11.253906 2.417969 11.257812 2.375 L 8.726562 2.375 C 9.640625 2.949219 10.25 3.964844 10.25 5.125 C 10.25 6.285156 9.640625 7.300781 8.726562 7.875 L 11.257812 7.875 C 11.253906 7.832031 11.25 7.792969 11.25 7.75 C 11.25 6.992188 11.867188 6.375 12.625 6.375 C 12.667969 6.375 12.707031 6.378906 12.75 6.382812 L 12.75 3.867188 C 12.707031 3.871094 12.667969 3.875 12.625 3.875 "/>
<path style=" stroke:none;fill-rule:nonzero;fill:rgb(91.372549%,90.980392%,82.745098%);fill-opacity:1;" d="M 1.375 3.125 C 1.03125 3.125 0.75 2.84375 0.75 2.5 C 0.75 2.15625 1.03125 1.875 1.375 1.875 C 1.71875 1.875 2 2.15625 2 2.5 C 2 2.84375 1.71875 3.125 1.375 3.125 "/>
<path style=" stroke:none;fill-rule:nonzero;fill:rgb(91.372549%,90.980392%,82.745098%);fill-opacity:1;" d="M 12.625 3.125 C 12.28125 3.125 12 2.84375 12 2.5 C 12 2.15625 12.28125 1.875 12.625 1.875 C 12.96875 1.875 13.25 2.15625 13.25 2.5 C 13.25 2.84375 12.96875 3.125 12.625 3.125 "/>
<path style=" stroke:none;fill-rule:nonzero;fill:rgb(91.372549%,90.980392%,82.745098%);fill-opacity:1;" d="M 1.375 8.375 C 1.03125 8.375 0.75 8.09375 0.75 7.75 C 0.75 7.40625 1.03125 7.125 1.375 7.125 C 1.71875 7.125 2 7.40625 2 7.75 C 2 8.09375 1.71875 8.375 1.375 8.375 "/>
<path style=" stroke:none;fill-rule:nonzero;fill:rgb(91.372549%,90.980392%,82.745098%);fill-opacity:1;" d="M 12.625 8.375 C 12.28125 8.375 12 8.09375 12 7.75 C 12 7.40625 12.28125 7.125 12.625 7.125 C 12.96875 7.125 13.25 7.40625 13.25 7.75 C 13.25 8.09375 12.96875 8.375 12.625 8.375 "/>
<path style=" stroke:none;fill-rule:nonzero;fill:rgb(43.137255%,54.901961%,38.039216%);fill-opacity:1;" d="M 5.5 2.242188 C 4.460938 2.785156 3.75 3.871094 3.75 5.125 C 3.75 6.378906 4.460938 7.464844 5.5 8.007812 Z M 5.5 2.242188 "/>
<path style=" stroke:none;fill-rule:nonzero;fill:rgb(43.137255%,54.901961%,38.039216%);fill-opacity:1;" d="M 8.5 2.242188 L 8.5 8.007812 C 9.539062 7.464844 10.25 6.378906 10.25 5.125 C 10.25 3.871094 9.539062 2.785156 8.5 2.242188 "/>
<path style=" stroke:none;fill-rule:nonzero;fill:rgb(37.647059%,48.235294%,32.54902%);fill-opacity:1;" d="M 0 12.125 L 5.5 12.125 L 5.5 12.875 L 0 12.875 Z M 0 12.125 "/>
<path style=" stroke:none;fill-rule:nonzero;fill:rgb(37.647059%,48.235294%,32.54902%);fill-opacity:1;" d="M 8.5 12.125 L 14 12.125 L 14 12.875 L 8.5 12.875 Z M 8.5 12.125 "/>
<path style=" stroke:none;fill-rule:nonzero;fill:rgb(32.941176%,41.176471%,28.627451%);fill-opacity:1;" d="M 0 11.375 L 5.5 11.375 L 5.5 12.125 L 0 12.125 Z M 0 11.375 "/>
<path style=" stroke:none;fill-rule:nonzero;fill:rgb(32.941176%,41.176471%,28.627451%);fill-opacity:1;" d="M 8.5 11.375 L 14 11.375 L 14 12.125 L 8.5 12.125 Z M 8.5 11.375 "/>
<path style=" stroke:none;fill-rule:nonzero;fill:rgb(37.647059%,48.235294%,32.54902%);fill-opacity:1;" d="M 0 10.625 L 5.5 10.625 L 5.5 11.375 L 0 11.375 Z M 0 10.625 "/>
<path style=" stroke:none;fill-rule:nonzero;fill:rgb(37.647059%,48.235294%,32.54902%);fill-opacity:1;" d="M 8.5 10.625 L 14 10.625 L 14 11.375 L 8.5 11.375 Z M 8.5 10.625 "/>
<path style=" stroke:none;fill-rule:nonzero;fill:rgb(32.941176%,41.176471%,28.627451%);fill-opacity:1;" d="M 0 9.875 L 5.5 9.875 L 5.5 10.625 L 0 10.625 Z M 0 9.875 "/>
<path style=" stroke:none;fill-rule:nonzero;fill:rgb(32.941176%,41.176471%,28.627451%);fill-opacity:1;" d="M 8.5 9.875 L 14 9.875 L 14 10.625 L 8.5 10.625 Z M 8.5 9.875 "/>
<path style=" stroke:none;fill-rule:nonzero;fill:rgb(37.647059%,48.235294%,32.54902%);fill-opacity:1;" d="M 0 9.125 L 5.5 9.125 L 5.5 9.875 L 0 9.875 Z M 0 9.125 "/>
<path style=" stroke:none;fill-rule:nonzero;fill:rgb(37.647059%,48.235294%,32.54902%);fill-opacity:1;" d="M 8.5 9.125 L 14 9.125 L 14 9.875 L 8.5 9.875 Z M 8.5 9.125 "/>
<path style=" stroke:none;fill-rule:nonzero;fill:rgb(81.960784%,83.137255%,82.352941%);fill-opacity:1;" d="M 5.5 1.125 L 8.5 1.125 L 8.5 9.125 L 5.5 9.125 Z M 5.5 1.125 "/>
<path style=" stroke:none;fill-rule:nonzero;fill:rgb(64.705882%,64.705882%,64.313725%);fill-opacity:1;" d="M 5.5 9.125 L 8.5 9.125 L 8.5 12.875 L 5.5 12.875 Z M 5.5 9.125 "/>
<path style=" stroke:none;fill-rule:nonzero;fill:rgb(43.137255%,54.901961%,38.039216%);fill-opacity:1;" d="M 0 1.125 L 14 1.125 L 14 9.125 L 0 9.125 Z M 0 1.125 "/>
<path style=" stroke:none;fill-rule:nonzero;fill:rgb(91.372549%,90.980392%,82.745098%);fill-opacity:1;" d="M 5.273438 7.875 C 4.359375 7.300781 3.75 6.285156 3.75 5.125 C 3.75 3.964844 4.359375 2.949219 5.273438 2.375 L 2.742188 2.375 C 2.746094 2.417969 2.75 2.457031 2.75 2.5 C 2.75 3.257812 2.132812 3.875 1.375 3.875 C 1.332031 3.875 1.292969 3.871094 1.25 3.867188 L 1.25 6.382812 C 1.292969 6.378906 1.332031 6.375 1.375 6.375 C 2.132812 6.375 2.75 6.992188 2.75 7.75 C 2.75 7.792969 2.746094 7.832031 2.742188 7.875 Z M 5.273438 7.875 "/>
<path style=" stroke:none;fill-rule:nonzero;fill:rgb(91.372549%,90.980392%,82.745098%);fill-opacity:1;" d="M 12.625 3.875 C 11.867188 3.875 11.25 3.257812 11.25 2.5 C 11.25 2.457031 11.253906 2.417969 11.257812 2.375 L 8.726562 2.375 C 9.640625 2.949219 10.25 3.964844 10.25 5.125 C 10.25 6.285156 9.640625 7.300781 8.726562 7.875 L 11.257812 7.875 C 11.253906 7.832031 11.25 7.792969 11.25 7.75 C 11.25 6.992188 11.867188 6.375 12.625 6.375 C 12.667969 6.375 12.707031 6.378906 12.75 6.382812 L 12.75 3.867188 C 12.707031 3.871094 12.667969 3.875 12.625 3.875 "/>
<path style=" stroke:none;fill-rule:nonzero;fill:rgb(91.372549%,90.980392%,82.745098%);fill-opacity:1;" d="M 1.375 3.125 C 1.03125 3.125 0.75 2.84375 0.75 2.5 C 0.75 2.15625 1.03125 1.875 1.375 1.875 C 1.71875 1.875 2 2.15625 2 2.5 C 2 2.84375 1.71875 3.125 1.375 3.125 "/>
<path style=" stroke:none;fill-rule:nonzero;fill:rgb(91.372549%,90.980392%,82.745098%);fill-opacity:1;" d="M 12.625 3.125 C 12.28125 3.125 12 2.84375 12 2.5 C 12 2.15625 12.28125 1.875 12.625 1.875 C 12.96875 1.875 13.25 2.15625 13.25 2.5 C 13.25 2.84375 12.96875 3.125 12.625 3.125 "/>
<path style=" stroke:none;fill-rule:nonzero;fill:rgb(91.372549%,90.980392%,82.745098%);fill-opacity:1;" d="M 1.375 8.375 C 1.03125 8.375 0.75 8.09375 0.75 7.75 C 0.75 7.40625 1.03125 7.125 1.375 7.125 C 1.71875 7.125 2 7.40625 2 7.75 C 2 8.09375 1.71875 8.375 1.375 8.375 "/>
<path style=" stroke:none;fill-rule:nonzero;fill:rgb(91.372549%,90.980392%,82.745098%);fill-opacity:1;" d="M 12.625 8.375 C 12.28125 8.375 12 8.09375 12 7.75 C 12 7.40625 12.28125 7.125 12.625 7.125 C 12.96875 7.125 13.25 7.40625 13.25 7.75 C 13.25 8.09375 12.96875 8.375 12.625 8.375 "/>
<path style=" stroke:none;fill-rule:nonzero;fill:rgb(43.137255%,54.901961%,38.039216%);fill-opacity:1;" d="M 5.5 2.242188 C 4.460938 2.785156 3.75 3.871094 3.75 5.125 C 3.75 6.378906 4.460938 7.464844 5.5 8.007812 Z M 5.5 2.242188 "/>
<path style=" stroke:none;fill-rule:nonzero;fill:rgb(43.137255%,54.901961%,38.039216%);fill-opacity:1;" d="M 8.5 2.242188 L 8.5 8.007812 C 9.539062 7.464844 10.25 6.378906 10.25 5.125 C 10.25 3.871094 9.539062 2.785156 8.5 2.242188 "/>
<path style=" stroke:none;fill-rule:nonzero;fill:rgb(37.647059%,48.235294%,32.54902%);fill-opacity:1;" d="M 0 12.125 L 5.5 12.125 L 5.5 12.875 L 0 12.875 Z M 0 12.125 "/>
<path style=" stroke:none;fill-rule:nonzero;fill:rgb(37.647059%,48.235294%,32.54902%);fill-opacity:1;" d="M 8.5 12.125 L 14 12.125 L 14 12.875 L 8.5 12.875 Z M 8.5 12.125 "/>
<path style=" stroke:none;fill-rule:nonzero;fill:rgb(32.941176%,41.176471%,28.627451%);fill-opacity:1;" d="M 0 11.375 L 5.5 11.375 L 5.5 12.125 L 0 12.125 Z M 0 11.375 "/>
<path style=" stroke:none;fill-rule:nonzero;fill:rgb(32.941176%,41.176471%,28.627451%);fill-opacity:1;" d="M 8.5 11.375 L 14 11.375 L 14 12.125 L 8.5 12.125 Z M 8.5 11.375 "/>
<path style=" stroke:none;fill-rule:nonzero;fill:rgb(37.647059%,48.235294%,32.54902%);fill-opacity:1;" d="M 0 10.625 L 5.5 10.625 L 5.5 11.375 L 0 11.375 Z M 0 10.625 "/>
<path style=" stroke:none;fill-rule:nonzero;fill:rgb(37.647059%,48.235294%,32.54902%);fill-opacity:1;" d="M 8.5 10.625 L 14 10.625 L 14 11.375 L 8.5 11.375 Z M 8.5 10.625 "/>
<path style=" stroke:none;fill-rule:nonzero;fill:rgb(32.941176%,41.176471%,28.627451%);fill-opacity:1;" d="M 0 9.875 L 5.5 9.875 L 5.5 10.625 L 0 10.625 Z M 0 9.875 "/>
<path style=" stroke:none;fill-rule:nonzero;fill:rgb(32.941176%,41.176471%,28.627451%);fill-opacity:1;" d="M 8.5 9.875 L 14 9.875 L 14 10.625 L 8.5 10.625 Z M 8.5 9.875 "/>
<path style=" stroke:none;fill-rule:nonzero;fill:rgb(37.647059%,48.235294%,32.54902%);fill-opacity:1;" d="M 0 9.125 L 5.5 9.125 L 5.5 9.875 L 0 9.875 Z M 0 9.125 "/>
<path style=" stroke:none;fill-rule:nonzero;fill:rgb(37.647059%,48.235294%,32.54902%);fill-opacity:1;" d="M 8.5 9.125 L 14 9.125 L 14 9.875 L 8.5 9.875 Z M 8.5 9.125 "/>
<path style=" stroke:none;fill-rule:nonzero;fill:rgb(81.960784%,83.137255%,82.352941%);fill-opacity:1;" d="M 5.5 1.125 L 8.5 1.125 L 8.5 9.125 L 5.5 9.125 Z M 5.5 1.125 "/>
<path style=" stroke:none;fill-rule:nonzero;fill:rgb(64.705882%,64.705882%,64.313725%);fill-opacity:1;" d="M 5.5 9.125 L 8.5 9.125 L 8.5 12.875 L 5.5 12.875 Z M 5.5 9.125 "/>
</g>
</svg>
