<?xml version="1.0" encoding="UTF-8"?>
<svg xmlns="http://www.w3.org/2000/svg" xmlns:xlink="http://www.w3.org/1999/xlink" width="px" height="px" viewBox="0 0 15 15" version="1.1">
<g id="surface1">
<path style=" stroke:none;fill-rule:nonzero;fill:rgb(81.960784%,83.137255%,81.960784%);fill-opacity:1;" d="M 2.328125 4.527344 L 14.742188 4.527344 L 14.742188 10.734375 L 2.328125 10.734375 Z M 2.328125 4.527344 "/>
<path style=" stroke:none;fill-rule:nonzero;fill:rgb(33.333333%,37.647059%,50.196078%);fill-opacity:1;" d="M 15 10.992188 L 2.070312 10.992188 L 2.070312 4.265625 L 15 4.265625 Z M 2.585938 10.472656 L 14.484375 10.472656 L 14.484375 4.785156 L 2.585938 4.785156 Z M 2.585938 10.472656 "/>
<path style=" stroke:none;fill-rule:nonzero;fill:rgb(33.333333%,37.647059%,50.196078%);fill-opacity:1;" d="M 2.328125 2.457031 L 1.035156 2.457031 C 0.890625 2.457031 0.777344 2.339844 0.777344 2.199219 C 0.777344 2.054688 0.890625 1.941406 1.035156 1.941406 L 2.328125 1.941406 C 2.46875 1.941406 2.585938 2.054688 2.585938 2.199219 C 2.585938 2.339844 2.46875 2.457031 2.328125 2.457031 Z M 2.328125 2.457031 "/>
<path style=" stroke:none;fill-rule:nonzero;fill:rgb(33.333333%,37.647059%,50.196078%);fill-opacity:1;" d="M 2.328125 4.785156 C 2.183594 4.785156 2.070312 4.667969 2.070312 4.527344 L 2.070312 2.199219 C 2.070312 2.054688 2.183594 1.941406 2.328125 1.941406 C 2.46875 1.941406 2.585938 2.054688 2.585938 2.199219 L 2.585938 4.527344 C 2.585938 4.667969 2.46875 4.785156 2.328125 4.785156 Z M 2.328125 4.785156 "/>
<path style=" stroke:none;fill-rule:nonzero;fill:rgb(33.333333%,37.647059%,50.196078%);fill-opacity:1;" d="M 2.328125 12.800781 C 2.183594 12.800781 2.070312 12.6875 2.070312 12.542969 L 2.070312 10.734375 C 2.070312 10.589844 2.183594 10.472656 2.328125 10.472656 C 2.46875 10.472656 2.585938 10.589844 2.585938 10.734375 L 2.585938 12.542969 C 2.585938 12.6875 2.46875 12.800781 2.328125 12.800781 Z M 2.328125 12.800781 "/>
<path style=" stroke:none;fill-rule:nonzero;fill:rgb(33.333333%,37.647059%,50.196078%);fill-opacity:1;" d="M 5.949219 13.835938 C 5.949219 14.40625 5.484375 14.871094 4.914062 14.871094 C 4.34375 14.871094 3.878906 14.40625 3.878906 13.835938 C 3.878906 13.265625 4.34375 12.800781 4.914062 12.800781 C 5.484375 12.800781 5.949219 13.265625 5.949219 13.835938 Z M 5.949219 13.835938 "/>
<path style=" stroke:none;fill-rule:nonzero;fill:rgb(33.333333%,37.647059%,50.196078%);fill-opacity:1;" d="M 12.15625 13.835938 C 12.15625 14.40625 11.691406 14.871094 11.121094 14.871094 C 10.550781 14.871094 10.085938 14.40625 10.085938 13.835938 C 10.085938 13.265625 10.550781 12.800781 11.121094 12.800781 C 11.691406 12.800781 12.15625 13.265625 12.15625 13.835938 Z M 12.15625 13.835938 "/>
<path style=" stroke:none;fill-rule:nonzero;fill:rgb(33.333333%,37.647059%,50.196078%);fill-opacity:1;" d="M 13.449219 12.800781 L 2.328125 12.800781 C 2.183594 12.800781 2.070312 12.6875 2.070312 12.542969 C 2.070312 12.398438 2.183594 12.285156 2.328125 12.285156 L 13.449219 12.285156 C 13.589844 12.285156 13.707031 12.398438 13.707031 12.542969 C 13.707031 12.6875 13.589844 12.800781 13.449219 12.800781 Z M 13.449219 12.800781 "/>
<path style=" stroke:none;fill-rule:nonzero;fill:rgb(33.333333%,37.647059%,50.196078%);fill-opacity:1;" d="M 14.742188 6.851562 L 2.328125 6.851562 C 2.183594 6.851562 2.070312 6.738281 2.070312 6.59375 C 2.070312 6.453125 2.183594 6.335938 2.328125 6.335938 L 14.742188 6.335938 C 14.882812 6.335938 15 6.453125 15 6.59375 C 15 6.738281 14.882812 6.851562 14.742188 6.851562 Z M 14.742188 6.851562 "/>
<path style=" stroke:none;fill-rule:nonzero;fill:rgb(33.333333%,37.647059%,50.196078%);fill-opacity:1;" d="M 14.742188 8.921875 L 2.328125 8.921875 C 2.183594 8.921875 2.070312 8.808594 2.070312 8.664062 C 2.070312 8.519531 2.183594 8.40625 2.328125 8.40625 L 14.742188 8.40625 C 14.882812 8.40625 15 8.519531 15 8.664062 C 15 8.808594 14.882812 8.921875 14.742188 8.921875 Z M 14.742188 8.921875 "/>
<path style=" stroke:none;fill-rule:nonzero;fill:rgb(33.333333%,37.647059%,50.196078%);fill-opacity:1;" d="M 4.398438 10.992188 C 4.253906 10.992188 4.136719 10.875 4.136719 10.734375 L 4.136719 4.527344 C 4.136719 4.382812 4.253906 4.265625 4.398438 4.265625 C 4.539062 4.265625 4.65625 4.382812 4.65625 4.527344 L 4.65625 10.734375 C 4.65625 10.875 4.539062 10.992188 4.398438 10.992188 Z M 4.398438 10.992188 "/>
<path style=" stroke:none;fill-rule:nonzero;fill:rgb(33.333333%,37.647059%,50.196078%);fill-opacity:1;" d="M 6.464844 10.992188 C 6.324219 10.992188 6.207031 10.875 6.207031 10.734375 L 6.207031 4.527344 C 6.207031 4.382812 6.324219 4.265625 6.464844 4.265625 C 6.609375 4.265625 6.722656 4.382812 6.722656 4.527344 L 6.722656 10.734375 C 6.722656 10.875 6.609375 10.992188 6.464844 10.992188 Z M 6.464844 10.992188 "/>
<path style=" stroke:none;fill-rule:nonzero;fill:rgb(33.333333%,37.647059%,50.196078%);fill-opacity:1;" d="M 8.535156 10.992188 C 8.390625 10.992188 8.277344 10.875 8.277344 10.734375 L 8.277344 4.527344 C 8.277344 4.382812 8.390625 4.265625 8.535156 4.265625 C 8.675781 4.265625 8.792969 4.382812 8.792969 4.527344 L 8.792969 10.734375 C 8.792969 10.875 8.675781 10.992188 8.535156 10.992188 Z M 8.535156 10.992188 "/>
<path style=" stroke:none;fill-rule:nonzero;fill:rgb(33.333333%,37.647059%,50.196078%);fill-opacity:1;" d="M 10.601562 10.992188 C 10.460938 10.992188 10.34375 10.875 10.34375 10.734375 L 10.34375 4.527344 C 10.34375 4.382812 10.460938 4.265625 10.601562 4.265625 C 10.746094 4.265625 10.863281 4.382812 10.863281 4.527344 L 10.863281 10.734375 C 10.863281 10.875 10.746094 10.992188 10.601562 10.992188 Z M 10.601562 10.992188 "/>
<path style=" stroke:none;fill-rule:nonzero;fill:rgb(33.333333%,37.647059%,50.196078%);fill-opacity:1;" d="M 12.671875 10.992188 C 12.53125 10.992188 12.414062 10.875 12.414062 10.734375 L 12.414062 4.527344 C 12.414062 4.382812 12.53125 4.265625 12.671875 4.265625 C 12.816406 4.265625 12.929688 4.382812 12.929688 4.527344 L 12.929688 10.734375 C 12.929688 10.875 12.816406 10.992188 12.671875 10.992188 Z M 12.671875 10.992188 "/>
<path style=" stroke:none;fill-rule:nonzero;fill:rgb(84.705882%,38.431373%,36.862745%);fill-opacity:1;" d="M 1.550781 2.199219 C 1.550781 2.625 1.203125 2.972656 0.777344 2.972656 C 0.347656 2.972656 0 2.625 0 2.199219 C 0 1.769531 0.347656 1.421875 0.777344 1.421875 C 1.203125 1.421875 1.550781 1.769531 1.550781 2.199219 Z M 1.550781 2.199219 "/>
<path style=" stroke:none;fill-rule:nonzero;fill:rgb(94.117647%,76.862745%,9.803922%);fill-opacity:1;" d="M 3.621094 2.199219 L 7.242188 2.199219 L 7.242188 4.265625 L 3.621094 4.265625 Z M 3.621094 2.199219 "/>
<path style=" stroke:none;fill-rule:nonzero;fill:rgb(52.54902%,59.215686%,79.607843%);fill-opacity:1;" d="M 7.242188 0.128906 L 11.378906 0.128906 L 11.378906 4.265625 L 7.242188 4.265625 Z M 7.242188 0.128906 "/>
<path style=" stroke:none;fill-rule:nonzero;fill:rgb(98.431373%,48.235294%,46.27451%);fill-opacity:1;" d="M 11.378906 0.90625 L 13.964844 0.90625 L 13.964844 4.265625 L 11.378906 4.265625 Z M 11.378906 0.90625 "/>
</g>
</svg>
