<?xml version="1.0" encoding="UTF-8"?>
<svg xmlns="http://www.w3.org/2000/svg" xmlns:xlink="http://www.w3.org/1999/xlink" width="px" height="px" viewBox="0 0 15 15" version="1.1">
<g id="surface1">
<path style=" stroke:none;fill-rule:nonzero;fill:rgb(36.862745%,19.215686%,9.411765%);fill-opacity:1;" d="M 10.738281 1.523438 L 14.222656 5.007812 L 14.085938 5.140625 L 15 5.140625 L 15 1.523438 Z M 10.738281 1.523438 "/>
<path style=" stroke:none;fill-rule:nonzero;fill:rgb(36.862745%,19.215686%,9.411765%);fill-opacity:1;" d="M 6.25 1.523438 L 1.808594 1.523438 C 0.808594 1.523438 0 2.332031 0 3.332031 C 0 4.332031 0.808594 5.140625 1.808594 5.140625 L 2.90625 5.140625 L 2.769531 5.007812 Z M 6.25 1.523438 "/>
<path style=" stroke:none;fill-rule:nonzero;fill:rgb(46.666667%,26.666667%,16.862745%);fill-opacity:1;" d="M 4.277344 2.164062 C 4.113281 2.175781 3.941406 2.183594 3.769531 2.191406 C 3.628906 2.195312 3.515625 2.316406 3.523438 2.457031 C 3.527344 2.597656 3.640625 2.707031 3.78125 2.707031 C 3.785156 2.707031 3.785156 2.707031 3.789062 2.707031 C 3.96875 2.703125 4.144531 2.691406 4.316406 2.679688 C 4.460938 2.667969 4.566406 2.542969 4.554688 2.402344 C 4.542969 2.261719 4.421875 2.152344 4.277344 2.164062 Z M 4.277344 2.164062 "/>
<path style=" stroke:none;fill-rule:nonzero;fill:rgb(46.666667%,26.666667%,16.862745%);fill-opacity:1;" d="M 2.738281 2.214844 C 2.558594 2.222656 2.382812 2.226562 2.210938 2.238281 C 2.070312 2.246094 1.960938 2.371094 1.96875 2.511719 C 1.976562 2.648438 2.09375 2.753906 2.226562 2.753906 C 2.234375 2.753906 2.238281 2.753906 2.242188 2.753906 C 2.40625 2.746094 2.578125 2.738281 2.753906 2.734375 C 2.894531 2.730469 3.007812 2.609375 3.003906 2.46875 C 3 2.324219 2.875 2.222656 2.738281 2.214844 Z M 2.738281 2.214844 "/>
<path style=" stroke:none;fill-rule:nonzero;fill:rgb(46.666667%,26.666667%,16.862745%);fill-opacity:1;" d="M 1.128906 2.410156 C 0.894531 2.488281 0.714844 2.589844 0.578125 2.722656 C 0.476562 2.824219 0.476562 2.988281 0.578125 3.089844 C 0.628906 3.140625 0.695312 3.164062 0.761719 3.164062 C 0.828125 3.164062 0.894531 3.140625 0.945312 3.089844 C 1.019531 3.015625 1.132812 2.953125 1.289062 2.902344 C 1.425781 2.855469 1.5 2.710938 1.453125 2.574219 C 1.410156 2.441406 1.265625 2.367188 1.128906 2.410156 Z M 1.128906 2.410156 "/>
<path style=" stroke:none;fill-rule:nonzero;fill:rgb(46.666667%,26.666667%,16.862745%);fill-opacity:1;" d="M 12.929688 2.296875 L 12.414062 2.296875 C 12.269531 2.296875 12.15625 2.414062 12.15625 2.554688 C 12.15625 2.699219 12.269531 2.816406 12.414062 2.816406 L 12.929688 2.816406 C 13.074219 2.816406 13.191406 2.699219 13.191406 2.554688 C 13.191406 2.414062 13.074219 2.296875 12.929688 2.296875 Z M 12.929688 2.296875 "/>
<path style=" stroke:none;fill-rule:nonzero;fill:rgb(46.666667%,26.666667%,16.862745%);fill-opacity:1;" d="M 14.484375 2.296875 L 13.964844 2.296875 C 13.824219 2.296875 13.707031 2.414062 13.707031 2.554688 C 13.707031 2.699219 13.824219 2.816406 13.964844 2.816406 L 14.484375 2.816406 C 14.625 2.816406 14.742188 2.699219 14.742188 2.554688 C 14.742188 2.414062 14.625 2.296875 14.484375 2.296875 Z M 14.484375 2.296875 "/>
<path style=" stroke:none;fill-rule:nonzero;fill:rgb(91.764706%,91.764706%,83.921569%);fill-opacity:1;" d="M 14.367188 5.140625 L 9.257812 0.0390625 C 9.246094 0.0273438 9.222656 0.0273438 9.207031 0.0390625 L 4.097656 5.140625 Z M 14.367188 5.140625 "/>
<path style=" stroke:none;fill-rule:nonzero;fill:rgb(74.901961%,74.117647%,63.921569%);fill-opacity:1;" d="M 4.105469 5.140625 L 8.496094 0.753906 L 7.785156 0.0390625 C 7.769531 0.0273438 7.746094 0.0273438 7.734375 0.0390625 L 2.625 5.140625 Z M 4.105469 5.140625 "/>
<path style=" stroke:none;fill-rule:nonzero;fill:rgb(42.745098%,54.901961%,37.647059%);fill-opacity:1;" d="M 12.242188 5.304688 L 12.320312 5.222656 L 9.246094 2.15625 C 9.238281 2.148438 9.226562 2.148438 9.21875 2.15625 L 6.148438 5.222656 L 6.226562 5.304688 Z M 12.242188 5.304688 "/>
<path style=" stroke:none;fill-rule:nonzero;fill:rgb(46.666667%,26.666667%,16.862745%);fill-opacity:1;" d="M 0 3.332031 L 0 13.378906 C 0 14.257812 0.710938 14.96875 1.589844 14.96875 L 15 14.96875 L 15 5.140625 L 1.808594 5.140625 C 0.808594 5.140625 0 4.332031 0 3.332031 Z M 0 3.332031 "/>
<path style=" stroke:none;fill-rule:nonzero;fill:rgb(56.862745%,33.333333%,23.921569%);fill-opacity:1;" d="M 13.449219 6.433594 L 12.929688 6.433594 C 12.789062 6.433594 12.671875 6.320312 12.671875 6.175781 C 12.671875 6.035156 12.789062 5.917969 12.929688 5.917969 L 13.449219 5.917969 C 13.589844 5.917969 13.707031 6.035156 13.707031 6.175781 C 13.707031 6.320312 13.589844 6.433594 13.449219 6.433594 Z M 11.898438 6.433594 L 11.378906 6.433594 C 11.234375 6.433594 11.121094 6.320312 11.121094 6.175781 C 11.121094 6.035156 11.234375 5.917969 11.378906 5.917969 L 11.898438 5.917969 C 12.039062 5.917969 12.15625 6.035156 12.15625 6.175781 C 12.15625 6.320312 12.039062 6.433594 11.898438 6.433594 Z M 10.34375 6.433594 L 9.828125 6.433594 C 9.683594 6.433594 9.570312 6.320312 9.570312 6.175781 C 9.570312 6.035156 9.683594 5.917969 9.828125 5.917969 L 10.34375 5.917969 C 10.488281 5.917969 10.601562 6.035156 10.601562 6.175781 C 10.601562 6.320312 10.488281 6.433594 10.34375 6.433594 Z M 8.792969 6.433594 L 8.277344 6.433594 C 8.132812 6.433594 8.015625 6.320312 8.015625 6.175781 C 8.015625 6.035156 8.132812 5.917969 8.277344 5.917969 L 8.792969 5.917969 C 8.9375 5.917969 9.050781 6.035156 9.050781 6.175781 C 9.050781 6.320312 8.9375 6.433594 8.792969 6.433594 Z M 7.242188 6.433594 L 6.722656 6.433594 C 6.582031 6.433594 6.464844 6.320312 6.464844 6.175781 C 6.464844 6.035156 6.582031 5.917969 6.722656 5.917969 L 7.242188 5.917969 C 7.382812 5.917969 7.5 6.035156 7.5 6.175781 C 7.5 6.320312 7.382812 6.433594 7.242188 6.433594 Z M 5.691406 6.433594 L 5.171875 6.433594 C 5.03125 6.433594 4.914062 6.320312 4.914062 6.175781 C 4.914062 6.035156 5.03125 5.917969 5.171875 5.917969 L 5.691406 5.917969 C 5.832031 5.917969 5.949219 6.035156 5.949219 6.175781 C 5.949219 6.320312 5.832031 6.433594 5.691406 6.433594 Z M 4.136719 6.433594 L 3.621094 6.433594 C 3.476562 6.433594 3.363281 6.320312 3.363281 6.175781 C 3.363281 6.035156 3.476562 5.917969 3.621094 5.917969 L 4.136719 5.917969 C 4.28125 5.917969 4.398438 6.035156 4.398438 6.175781 C 4.398438 6.320312 4.28125 6.433594 4.136719 6.433594 Z M 2.585938 6.433594 L 2.070312 6.433594 C 1.925781 6.433594 1.808594 6.320312 1.808594 6.175781 C 1.808594 6.035156 1.925781 5.917969 2.070312 5.917969 L 2.585938 5.917969 C 2.730469 5.917969 2.84375 6.035156 2.84375 6.175781 C 2.84375 6.320312 2.730469 6.433594 2.585938 6.433594 Z M 1.058594 6.273438 C 1.023438 6.273438 0.984375 6.265625 0.949219 6.25 C 0.769531 6.167969 0.605469 6.058594 0.457031 5.929688 C 0.347656 5.835938 0.335938 5.671875 0.429688 5.566406 C 0.523438 5.457031 0.6875 5.445312 0.792969 5.539062 C 0.90625 5.636719 1.03125 5.71875 1.164062 5.777344 C 1.296875 5.835938 1.351562 5.992188 1.292969 6.121094 C 1.25 6.214844 1.15625 6.273438 1.058594 6.273438 Z M 1.058594 6.273438 "/>
<path style=" stroke:none;fill-rule:nonzero;fill:rgb(56.862745%,33.333333%,23.921569%);fill-opacity:1;" d="M 13.449219 14.195312 L 12.929688 14.195312 C 12.789062 14.195312 12.671875 14.078125 12.671875 13.933594 C 12.671875 13.792969 12.789062 13.675781 12.929688 13.675781 L 13.449219 13.675781 C 13.589844 13.675781 13.707031 13.792969 13.707031 13.933594 C 13.707031 14.078125 13.589844 14.195312 13.449219 14.195312 Z M 11.898438 14.195312 L 11.378906 14.195312 C 11.234375 14.195312 11.121094 14.078125 11.121094 13.933594 C 11.121094 13.792969 11.234375 13.675781 11.378906 13.675781 L 11.898438 13.675781 C 12.039062 13.675781 12.15625 13.792969 12.15625 13.933594 C 12.15625 14.078125 12.039062 14.195312 11.898438 14.195312 Z M 10.34375 14.195312 L 9.828125 14.195312 C 9.683594 14.195312 9.570312 14.078125 9.570312 13.933594 C 9.570312 13.792969 9.683594 13.675781 9.828125 13.675781 L 10.34375 13.675781 C 10.488281 13.675781 10.601562 13.792969 10.601562 13.933594 C 10.601562 14.078125 10.488281 14.195312 10.34375 14.195312 Z M 8.792969 14.195312 L 8.277344 14.195312 C 8.132812 14.195312 8.015625 14.078125 8.015625 13.933594 C 8.015625 13.792969 8.132812 13.675781 8.277344 13.675781 L 8.792969 13.675781 C 8.9375 13.675781 9.050781 13.792969 9.050781 13.933594 C 9.050781 14.078125 8.9375 14.195312 8.792969 14.195312 Z M 7.242188 14.195312 L 6.722656 14.195312 C 6.582031 14.195312 6.464844 14.078125 6.464844 13.933594 C 6.464844 13.792969 6.582031 13.675781 6.722656 13.675781 L 7.242188 13.675781 C 7.382812 13.675781 7.5 13.792969 7.5 13.933594 C 7.5 14.078125 7.382812 14.195312 7.242188 14.195312 Z M 5.691406 14.195312 L 5.171875 14.195312 C 5.03125 14.195312 4.914062 14.078125 4.914062 13.933594 C 4.914062 13.792969 5.03125 13.675781 5.171875 13.675781 L 5.691406 13.675781 C 5.832031 13.675781 5.949219 13.792969 5.949219 13.933594 C 5.949219 14.078125 5.832031 14.195312 5.691406 14.195312 Z M 4.136719 14.195312 L 3.621094 14.195312 C 3.476562 14.195312 3.363281 14.078125 3.363281 13.933594 C 3.363281 13.792969 3.476562 13.675781 3.621094 13.675781 L 4.136719 13.675781 C 4.28125 13.675781 4.398438 13.792969 4.398438 13.933594 C 4.398438 14.078125 4.28125 14.195312 4.136719 14.195312 Z M 2.585938 14.195312 L 2.070312 14.195312 C 1.925781 14.195312 1.808594 14.078125 1.808594 13.933594 C 1.808594 13.792969 1.925781 13.675781 2.070312 13.675781 L 2.585938 13.675781 C 2.730469 13.675781 2.84375 13.792969 2.84375 13.933594 C 2.84375 14.078125 2.730469 14.195312 2.585938 14.195312 Z M 1.058594 14.03125 C 1.023438 14.03125 0.984375 14.023438 0.949219 14.007812 C 0.769531 13.925781 0.605469 13.820312 0.457031 13.6875 C 0.347656 13.59375 0.335938 13.433594 0.429688 13.324219 C 0.523438 13.214844 0.6875 13.203125 0.792969 13.296875 C 0.90625 13.394531 1.03125 13.476562 1.164062 13.539062 C 1.296875 13.597656 1.351562 13.75 1.292969 13.878906 C 1.25 13.976562 1.15625 14.03125 1.058594 14.03125 Z M 1.058594 14.03125 "/>
<path style=" stroke:none;fill-rule:nonzero;fill:rgb(42.745098%,23.921569%,14.509804%);fill-opacity:1;" d="M 15 11.652344 L 11.898438 11.652344 C 11.039062 11.652344 10.34375 10.957031 10.34375 10.097656 C 10.34375 9.242188 11.039062 8.546875 11.898438 8.546875 L 15 8.546875 Z M 15 11.652344 "/>
<path style=" stroke:none;fill-rule:nonzero;fill:rgb(36.862745%,19.215686%,9.411765%);fill-opacity:1;" d="M 15 11.347656 L 11.898438 11.347656 C 11.039062 11.347656 10.34375 10.65625 10.34375 9.796875 C 10.34375 8.941406 11.039062 8.246094 11.898438 8.246094 L 15 8.246094 Z M 15 11.347656 "/>
<path style=" stroke:none;fill-rule:nonzero;fill:rgb(89.411765%,75.294118%,36.078431%);fill-opacity:1;" d="M 12.929688 9.796875 C 12.929688 10.226562 12.582031 10.574219 12.15625 10.574219 C 11.726562 10.574219 11.378906 10.226562 11.378906 9.796875 C 11.378906 9.367188 11.726562 9.023438 12.15625 9.023438 C 12.582031 9.023438 12.929688 9.367188 12.929688 9.796875 Z M 12.929688 9.796875 "/>
</g>
</svg>
