<?xml version="1.0" encoding="UTF-8"?>
<svg xmlns="http://www.w3.org/2000/svg" xmlns:xlink="http://www.w3.org/1999/xlink" width="px" height="px" viewBox="0 0 15 15" version="1.1">
<g id="surface1">
<path style=" stroke:none;fill-rule:nonzero;fill:rgb(29.803922%,25.098039%,19.215686%);fill-opacity:1;" d="M 8.492188 4.699219 C 8.160156 4.699219 7.828125 4.574219 7.578125 4.320312 C 7.476562 4.21875 7.476562 4.054688 7.578125 3.957031 C 7.679688 3.855469 7.84375 3.855469 7.941406 3.957031 C 8.246094 4.257812 8.738281 4.257812 9.039062 3.957031 C 9.140625 3.855469 9.304688 3.855469 9.40625 3.957031 C 9.507812 4.054688 9.507812 4.21875 9.40625 4.320312 C 9.152344 4.574219 8.824219 4.699219 8.492188 4.699219 "/>
<path style=" stroke:none;fill-rule:nonzero;fill:rgb(78.039216%,71.372549%,63.137255%);fill-opacity:1;" d="M 10.09375 10.265625 L 10.09375 9.230469 C 10.09375 9.011719 10.773438 8.625 11.707031 8.484375 C 11.382812 7.78125 10.890625 7.148438 10.242188 6.652344 L 8.371094 5.378906 C 8.269531 5.304688 8.167969 5.234375 8.058594 5.171875 C 7.914062 4.734375 7.816406 4.28125 7.765625 3.824219 L 7.632812 2.578125 C 7.621094 2.46875 7.621094 2.359375 7.632812 2.25 C 7.648438 2.109375 7.667969 1.910156 7.675781 1.886719 C 7.691406 1.839844 7.714844 1.785156 7.738281 1.734375 C 7.84375 1.523438 7.972656 1.304688 8.105469 1.140625 C 8.152344 1.085938 8.195312 1.035156 8.25 0.988281 C 8.550781 0.734375 8.476562 0.253906 8.101562 0.132812 C 7.898438 0.0625 7.675781 0.015625 7.449219 0.00390625 C 7.429688 0 7.40625 0.00390625 7.386719 0.00390625 C 7.335938 0 7.285156 0 7.230469 0.00390625 C 6.929688 0.0195312 6.625 0.117188 6.347656 0.339844 C 6.253906 0.414062 6.144531 0.449219 6.03125 0.449219 C 5.921875 0.449219 5.808594 0.414062 5.714844 0.335938 C 5.371094 0.0625 4.984375 -0.0195312 4.609375 0.00390625 C 4.386719 0.015625 4.164062 0.0625 3.960938 0.132812 C 3.585938 0.253906 3.511719 0.734375 3.808594 0.988281 C 3.84375 1.015625 3.875 1.050781 3.910156 1.085938 C 3.921875 1.09375 3.929688 1.105469 3.941406 1.117188 C 3.984375 1.164062 4.03125 1.21875 4.074219 1.277344 C 4.226562 1.484375 4.328125 1.707031 4.390625 1.886719 C 4.410156 1.9375 4.425781 2.214844 4.453125 2.367188 C 4.46875 2.460938 4.480469 2.558594 4.480469 2.65625 L 4.480469 3.558594 C 4.480469 4.085938 4.414062 4.609375 4.292969 5.121094 C 4.167969 5.179688 4.050781 5.25 3.941406 5.335938 L 2.117188 6.664062 C 0.324219 8.074219 -0.277344 10.558594 0.753906 12.59375 C 1.183594 13.441406 1.777344 14.167969 2.480469 14.21875 C 2.542969 14.222656 2.609375 14.222656 2.675781 14.222656 L 7.769531 14.222656 C 7.703125 14.117188 7.652344 13.992188 7.609375 13.855469 C 7.636719 13.855469 7.664062 13.855469 7.691406 13.855469 C 9.375 13.738281 10.464844 12.691406 10.09375 11.199219 Z M 10.09375 10.265625 "/>
<path style=" stroke:none;fill-rule:nonzero;fill:rgb(81.960784%,61.568627%,9.411765%);fill-opacity:1;" d="M 12.421875 10.757812 C 11.136719 10.757812 10.09375 10.535156 10.09375 10.265625 L 10.09375 11.300781 C 10.097656 11.570312 11.136719 11.792969 12.421875 11.792969 C 13.707031 11.792969 14.75 11.570312 14.75 11.300781 L 14.75 10.265625 C 14.75 10.535156 13.707031 10.757812 12.421875 10.757812 "/>
<path style=" stroke:none;fill-rule:nonzero;fill:rgb(98.823529%,77.647059%,17.647059%);fill-opacity:1;" d="M 14.75 9.230469 C 14.75 9.5 13.707031 9.722656 12.421875 9.722656 C 11.136719 9.722656 10.09375 9.5 10.09375 9.230469 C 10.09375 8.957031 11.136719 8.429688 12.421875 8.429688 C 13.707031 8.429688 14.75 8.957031 14.75 9.230469 "/>
<path style=" stroke:none;fill-rule:nonzero;fill:rgb(89.411765%,68.627451%,9.411765%);fill-opacity:1;" d="M 12.421875 9.722656 C 11.136719 9.722656 10.09375 9.5 10.09375 9.230469 L 10.09375 10.265625 C 10.097656 10.535156 11.136719 10.757812 12.421875 10.757812 C 13.707031 10.757812 14.75 10.535156 14.75 10.265625 L 14.75 9.230469 C 14.75 9.5 13.707031 9.722656 12.421875 9.722656 "/>
<path style=" stroke:none;fill-rule:nonzero;fill:rgb(41.960784%,35.686275%,27.45098%);fill-opacity:1;" d="M 7.765625 4.398438 L 4.40625 4.398438 C 4.261719 4.398438 4.148438 4.28125 4.148438 4.136719 C 4.148438 3.996094 4.261719 3.878906 4.40625 3.878906 L 7.765625 3.878906 C 7.910156 3.878906 8.027344 3.996094 8.027344 4.136719 C 8.027344 4.28125 7.910156 4.398438 7.765625 4.398438 "/>
<path style=" stroke:none;fill-rule:nonzero;fill:rgb(41.960784%,35.686275%,27.45098%);fill-opacity:1;" d="M 7.765625 3.621094 L 4.40625 3.621094 C 4.261719 3.621094 4.148438 3.503906 4.148438 3.363281 C 4.148438 3.21875 4.261719 3.101562 4.40625 3.101562 L 7.765625 3.101562 C 7.910156 3.101562 8.027344 3.21875 8.027344 3.363281 C 8.027344 3.503906 7.910156 3.621094 7.765625 3.621094 "/>
<path style=" stroke:none;fill-rule:nonzero;fill:rgb(41.960784%,35.686275%,27.45098%);fill-opacity:1;" d="M 7.765625 2.84375 L 4.40625 2.84375 C 4.261719 2.84375 4.148438 2.730469 4.148438 2.585938 C 4.148438 2.445312 4.261719 2.328125 4.40625 2.328125 L 7.765625 2.328125 C 7.910156 2.328125 8.027344 2.445312 8.027344 2.585938 C 8.027344 2.730469 7.910156 2.84375 7.765625 2.84375 "/>
<path style=" stroke:none;fill-rule:nonzero;fill:rgb(89.411765%,68.627451%,9.411765%);fill-opacity:1;" d="M 12.421875 13.859375 C 11.902344 13.859375 11.421875 13.824219 11.035156 13.761719 C 10.917969 14.117188 10.691406 14.425781 10.394531 14.644531 C 10.792969 14.792969 11.550781 14.894531 12.421875 14.894531 C 13.707031 14.894531 14.75 14.675781 14.75 14.402344 L 14.75 13.367188 C 14.75 13.640625 13.707031 13.859375 12.421875 13.859375 "/>
<path style=" stroke:none;fill-rule:nonzero;fill:rgb(89.411765%,68.627451%,9.411765%);fill-opacity:1;" d="M 12.421875 11.792969 C 11.136719 11.792969 10.09375 11.570312 10.09375 11.296875 L 10.09375 11.554688 C 10.574219 11.78125 10.933594 12.210938 11.070312 12.734375 C 11.449219 12.792969 11.917969 12.824219 12.421875 12.824219 C 13.707031 12.824219 14.75 12.605469 14.75 12.332031 L 14.75 11.296875 C 14.75 11.570312 13.707031 11.792969 12.421875 11.792969 "/>
<path style=" stroke:none;fill-rule:nonzero;fill:rgb(81.960784%,61.568627%,9.411765%);fill-opacity:1;" d="M 12.421875 12.824219 C 11.917969 12.824219 11.449219 12.792969 11.070312 12.734375 C 11.105469 12.878906 11.128906 13.03125 11.128906 13.1875 C 11.128906 13.390625 11.09375 13.582031 11.035156 13.761719 C 11.421875 13.824219 11.902344 13.859375 12.421875 13.859375 C 13.707031 13.859375 14.75 13.640625 14.75 13.367188 L 14.75 12.332031 C 14.75 12.605469 13.707031 12.824219 12.421875 12.824219 "/>
<path style=" stroke:none;fill-rule:nonzero;fill:rgb(98.823529%,77.647059%,17.647059%);fill-opacity:1;" d="M 11.128906 13.191406 C 11.128906 14.191406 10.320312 15 9.320312 15 C 8.320312 15 7.507812 14.191406 7.507812 13.191406 C 7.507812 12.191406 8.320312 11.378906 9.320312 11.378906 C 10.320312 11.378906 11.128906 12.191406 11.128906 13.191406 "/>
<path style=" stroke:none;fill-rule:nonzero;fill:rgb(85.882353%,80%,72.941176%);fill-opacity:1;" d="M 2.078125 10.601562 C 1.933594 10.601562 1.820312 10.488281 1.820312 10.34375 C 1.820312 8.570312 3.78125 6.464844 5.441406 6.464844 C 5.582031 6.464844 5.699219 6.582031 5.699219 6.722656 C 5.699219 6.867188 5.582031 6.984375 5.441406 6.984375 C 4.078125 6.984375 2.335938 8.867188 2.335938 10.34375 C 2.335938 10.488281 2.21875 10.601562 2.078125 10.601562 "/>
</g>
</svg>
